<svg width="139" height="90" viewBox="0 0 139 90" fill="none" xmlns="http://www.w3.org/2000/svg">
<path d="M20.113 35H1.58V2.75H18.307C21.403 2.75 23.6103 3.352 24.929 4.556C26.2477 5.76 26.907 7.50867 26.907 9.802C26.907 12.124 26.4913 13.9157 25.66 15.177C24.8287 16.4097 23.6963 17.2267 22.263 17.628V17.929C26.4197 18.6457 28.498 21.4837 28.498 26.443C28.498 29.023 27.81 31.1013 26.434 32.678C25.0867 34.226 22.9797 35 20.113 35ZM15.942 22.143H11.9V27.432H15.856C17.318 27.432 18.049 26.5433 18.049 24.766C18.049 23.0173 17.3467 22.143 15.942 22.143ZM15.168 9.802H11.9V14.618H15.082C16.4007 14.618 17.06 13.8153 17.06 12.21C17.06 10.6047 16.4293 9.802 15.168 9.802ZM31.0763 22.1C31.0763 17.4847 32.1513 14.059 34.3013 11.823C36.4513 9.55833 39.9343 8.426 44.7503 8.426C49.5663 8.426 53.0493 9.55833 55.1993 11.823C57.3493 14.059 58.4243 17.4847 58.4243 22.1C58.4243 26.7153 57.3493 30.1553 55.1993 32.42C53.0493 34.656 49.5663 35.774 44.7503 35.774C40.049 35.774 36.5947 34.6703 34.3873 32.463C32.18 30.2557 31.0763 26.8013 31.0763 22.1ZM42.1703 18.144V28.249H43.7613C45.0227 28.249 45.9257 28.12 46.4703 27.862C47.0437 27.604 47.3303 27.002 47.3303 26.056V15.951H45.7393C44.478 15.951 43.5607 16.08 42.9873 16.338C42.4427 16.596 42.1703 17.198 42.1703 18.144ZM61.5207 22.1C61.5207 17.4847 62.5957 14.059 64.7457 11.823C66.8957 9.55833 70.3787 8.426 75.1947 8.426C80.0107 8.426 83.4937 9.55833 85.6437 11.823C87.7937 14.059 88.8687 17.4847 88.8687 22.1C88.8687 26.7153 87.7937 30.1553 85.6437 32.42C83.4937 34.656 80.0107 35.774 75.1947 35.774C70.4933 35.774 67.039 34.6703 64.8317 32.463C62.6243 30.2557 61.5207 26.8013 61.5207 22.1ZM72.6147 18.144V28.249H74.2057C75.467 28.249 76.37 28.12 76.9147 27.862C77.488 27.604 77.7747 27.002 77.7747 26.056V15.951H76.1837C74.9223 15.951 74.005 16.08 73.4317 16.338C72.887 16.596 72.6147 17.198 72.6147 18.144ZM118.797 35H107.66L103.661 24.766H103.317V35H92.997V1.46L103.317 0.685998V17.714H103.661L107.402 9.2H118.539L112.562 21.498L118.797 35ZM0.29 88.441L1.752 79.927C4.90533 80.701 7.75767 81.088 10.309 81.088C11.599 81.088 12.7313 81.0737 13.706 81.045C14.7093 80.9877 15.598 80.9017 16.372 80.787V78.207L11.728 77.82C9.63533 77.6193 7.88667 77.2753 6.482 76.788C5.07733 76.3007 3.945 75.6413 3.085 74.81C2.25367 73.95 1.65167 72.9323 1.279 71.757C0.935 70.553 0.763 69.1483 0.763 67.543C0.763 65.3357 0.992333 63.501 1.451 62.039C1.90967 60.5483 2.64067 59.3587 3.644 58.47C4.64733 57.5527 5.93733 56.9077 7.514 56.535C9.11933 56.1623 11.0687 55.976 13.362 55.976C17.92 55.976 22.048 56.406 25.746 57.266L24.456 65.522C21.2453 65.006 18.6797 64.748 16.759 64.748C14.8383 64.748 13.2043 64.834 11.857 65.006V67.543L15.555 67.887C17.8197 68.1163 19.7117 68.5033 21.231 69.048C22.7503 69.564 23.9687 70.252 24.886 71.112C25.832 71.972 26.4913 72.9897 26.864 74.165C27.2653 75.3403 27.466 76.6877 27.466 78.207C27.466 80.3857 27.1793 82.2203 26.606 83.711C26.0327 85.2017 25.3447 86.334 24.542 87.108C23.8827 87.7387 23.0657 88.2403 22.091 88.613C21.1163 88.957 20.0843 89.215 18.995 89.387C17.9057 89.559 16.802 89.6593 15.684 89.688C14.5947 89.7453 13.6057 89.774 12.717 89.774C10.481 89.774 8.331 89.6593 6.267 89.43C4.203 89.2007 2.21067 88.871 0.29 88.441ZM43.5645 62.426C51.8205 62.426 55.9485 65.264 55.9485 70.94V89H50.7885L47.8645 86.076C47.3485 86.6493 46.7321 87.1653 46.0155 87.624C45.3275 88.0827 44.5821 88.4697 43.7795 88.785C42.9768 89.1003 42.1598 89.344 41.3285 89.516C40.4971 89.688 39.6945 89.774 38.9205 89.774C37.4585 89.774 36.1398 89.6163 34.9645 89.301C33.8178 89.0143 32.8431 88.5413 32.0405 87.882C31.2378 87.2227 30.6215 86.3483 30.1915 85.259C29.7615 84.1697 29.5465 82.8367 29.5465 81.26C29.5465 75.068 34.2191 71.972 43.5645 71.972H45.6285V70.123C45.0838 70.0943 44.5821 70.0657 44.1235 70.037C43.6935 70.0083 43.2921 69.994 42.9195 69.994C39.0495 69.994 35.7098 70.467 32.9005 71.413L31.6535 64.017C35.0935 62.9563 39.0638 62.426 43.5645 62.426ZM39.9525 80.142V82.249H42.1025C43.5931 82.249 44.5678 82.077 45.0265 81.733C45.4278 81.3603 45.6285 80.916 45.6285 80.4V77.949H43.5215C42.2888 77.949 41.3858 78.078 40.8125 78.336C40.2391 78.594 39.9525 79.196 39.9525 80.142ZM70.899 89H60.579V64.49L70.899 63.2V89ZM60.02 58.341C60.02 57.567 60.106 56.922 60.278 56.406C60.45 55.8613 60.751 55.4313 61.181 55.116C61.611 54.772 62.1987 54.5283 62.944 54.385C63.6894 54.2417 64.6354 54.17 65.782 54.17C66.9287 54.17 67.8604 54.2417 68.577 54.385C69.3224 54.5283 69.91 54.772 70.34 55.116C70.77 55.4313 71.071 55.8613 71.243 56.406C71.415 56.922 71.501 57.567 71.501 58.341C71.501 59.115 71.415 59.76 71.243 60.276C71.071 60.792 70.77 61.222 70.34 61.566C69.91 61.8813 69.3224 62.1107 68.577 62.254C67.8604 62.3687 66.9287 62.426 65.782 62.426C64.9507 62.426 64.1767 62.3973 63.46 62.34C62.772 62.2827 62.17 62.125 61.654 61.867C61.138 61.5803 60.7367 61.1647 60.45 60.62C60.1634 60.0753 60.02 59.3157 60.02 58.341ZM76.0741 55.46L86.3941 54.686V81.604C86.9388 81.7187 87.4261 81.8047 87.8561 81.862C88.2861 81.9193 88.6445 81.9623 88.9311 81.991L88.4581 89.559C84.0721 89.559 81.1625 89.301 79.7291 88.785C78.5251 88.355 77.6078 87.796 76.9771 87.108C76.3751 86.42 76.0741 85.431 76.0741 84.141V55.46ZM90.9992 76.1C90.9992 71.4847 92.0742 68.059 94.2242 65.823C96.3742 63.5583 99.8572 62.426 104.673 62.426C109.489 62.426 112.972 63.5583 115.122 65.823C117.272 68.059 118.347 71.4847 118.347 76.1C118.347 80.7153 117.272 84.1553 115.122 86.42C112.972 88.656 109.489 89.774 104.673 89.774C99.9718 89.774 96.5175 88.6703 94.3102 86.463C92.1028 84.2557 90.9992 80.8013 90.9992 76.1ZM102.093 72.144V82.249H103.684C104.946 82.249 105.849 82.12 106.393 81.862C106.967 81.604 107.253 81.002 107.253 80.056V69.951H105.662C104.401 69.951 103.484 70.08 102.91 70.338C102.366 70.596 102.093 71.198 102.093 72.144ZM122.476 89V63.2H127.636L130.474 66.081C132.538 64.189 135.089 62.9707 138.128 62.426L138.73 72.187C138.328 72.187 137.841 72.2443 137.268 72.359C136.694 72.4737 136.107 72.617 135.505 72.789C134.931 72.961 134.401 73.176 133.914 73.434C133.426 73.6633 133.054 73.9357 132.796 74.251V89H122.476Z" fill="#82B4F0"/>
</svg>
